# xmcd CD database file
#
# Track frame offsets:
#	150
#	22364
#	40604
#	61373
#	77413
#	92242
#	105544
#	124536
#	147681
#	163335
#	180215
#	198327
#	214000
#	229506
#
# Disc length: 3303 seconds
#
# Revision: 3
# Processed by: cddbd v1.5.2PL0 Copyright (c) Steve Scherf et al.
# Submitted via: CDex 1.70beta2
#
DISCID=ba0ce50e
DTITLE=Hampton, R. W. - Always In My Heart
DYEAR=2001
DGENRE=Country
TTITLE0=When She Cries, "Don't Go"
TTITLE1=Adobe Walls
TTITLE2=Back Home To Lisa
TTITLE3=Lily Dale
TTITLE4=Cowboy And The Queen
TTITLE5=Shelly's Winter Love
TTITLE6=It's You I'm Missing Most Of All
TTITLE7=Bend In The River
TTITLE8=When It Rains
TTITLE9=For Only Loving You
TTITLE10=Blue Spanish Eyes
TTITLE11=What Does She See
TTITLE12=Whispering Pines
TTITLE13=Alberta Rose
EXTD=YEAR: 2001
EXTT0=
EXTT1=
EXTT2=
EXTT3=
EXTT4=
EXTT5=
EXTT6=
EXTT7=
EXTT8=
EXTT9=
EXTT10=
EXTT11=
EXTT12=
EXTT13=
PLAYORDER=
